<?xml version="1.0" encoding="UTF-8" standalone="no"?>
<svg width="74px" height="74px" viewBox="0 0 74 74" version="1.1" xmlns="http://www.w3.org/2000/svg" xmlns:xlink="http://www.w3.org/1999/xlink">
    <!-- Generator: Sketch 3.6.1 (26313) - http://www.bohemiancoding.com/sketch -->
    <title>Logo-Outline</title>
    <desc>Created with Sketch.</desc>
    <defs></defs>
    <g id="Website" stroke="none" stroke-width="1" fill="none" fill-rule="evenodd">
        <g id="Desktop-HD-Copy-3" transform="translate(-55.000000, -32.000000)" stroke="#FFFFFF" stroke-width="1.5">
            <g id="Logo-Outline" transform="translate(57.000000, 34.000000)">
                <path d="M18.2054364,40.6188417 L10.9508011,40.6419688 C10.6694554,40.6428657 10.5453539,40.4510891 10.67663,40.2101452 C10.67663,40.2101452 15.8434289,30.5560851 17.4465544,30.5560851 C18.6417407,30.5560851 18.4989807,32.2226623 18.4989807,32.2226623 C18.4989807,32.2226623 17.8493024,54.0657511 18.0401354,55.2631579 C18.2309684,56.4605647 18.9865677,57.578964 20.7254384,57.5442618 C22.464309,57.5095597 26.7943792,49.2037369 26.7943792,49.2037369 L47.0773628,13.3813317 C47.2125829,13.1425153 47.5381045,12.9489164 47.822935,12.9489164 L58.1351863,12.9489164 C58.4117343,12.9489164 58.5217753,13.1510379 58.3905118,13.3834709 L35.3828843,54.1238791 C35.3828843,54.1238791 34.213011,55.8114813 33.5525364,56.4328466 C32.8920617,57.0542119 32.5192225,57.3572921 31.821763,57.5324034 C31.1243035,57.7075148 20.6290735,57.5445528 20.6290735,57.5445528" id="Path-1176"></path>
                <path d="M17.3398309,30.5613231 C17.3398309,30.5613231 25.0173447,30.6212699 26.6204702,30.6212699 C27.8156566,30.6212699 27.6596929,32.1750832 27.6596929,32.1750832 L27.6664042,47.7676344" id="Path-1176-Copy"></path>
                <rect id="Rectangle-363" x="0" y="0" width="70" height="70" rx="13"></rect>
            </g>
        </g>
    </g>
</svg>